# xmcd CD Database Entry
#
# Track frame offsets:
# 182
# 18417
# 37695
# 50405
# 62307
# 75362
# 89287
# 100157
# 119892
# 137630
# 152192
# 169577
# 191100
# 210817
#
# Disc length: 3150 seconds
#
# Revision: 4
# Processed by: cddbd v1.4b41PL1 Copyright (c) Steve Scherf et al.
# Submitted via: tcd 2.0b
#
DISCID=a80c4c0e
DTITLE=Bob Dylan - All I Really Want To Do
DYEAR=1900
DGENRE=
TTITLE0=All I Really Want To Do
TTITLE1=It's All Over Now, Baby Blue
TTITLE2=She Belongs To Me
TTITLE3=On The Road Again
TTITLE4=Love Minus Zero
TTITLE5=Outlaw Blues
TTITLE6=Spanish Harlem
TTITLE7=My Back Pages
TTITLE8=Maggie's Farm
TTITLE9=Black Crow Blues
TTITLE10=To Ramona
TTITLE11=I Shell Be Free No. 10
TTITLE12=I Don't Believe You
TTITLE13=Gates Of Eden
EXTD=
EXTT0=
EXTT1=
EXTT2=
EXTT3=
EXTT4=
EXTT5=
EXTT6=
EXTT7=
EXTT8=
EXTT9=
EXTT10=
EXTT11=
EXTT12=
EXTT13=
PLAYORDER=
